<svg width="61" height="61" viewBox="0 0 61 61" fill="none" xmlns="http://www.w3.org/2000/svg">
<path d="M29.9835 14.5702C25.8965 14.5702 21.977 16.1937 19.087 19.0837C16.1971 21.9736 14.5735 25.8932 14.5735 29.9802C14.5735 34.0672 16.1971 37.9868 19.087 40.8767C21.977 43.7667 25.8965 45.3902 29.9835 45.3902C34.0705 45.3902 37.9901 43.7667 40.8801 40.8767C43.77 37.9868 45.3935 34.0672 45.3935 29.9802C45.3935 25.8932 43.77 21.9736 40.8801 19.0837C37.9901 16.1937 34.0705 14.5702 29.9835 14.5702ZM29.9835 39.988C27.3284 39.988 24.782 38.9333 22.9046 37.0558C21.0271 35.1784 19.9724 32.632 19.9724 29.9769C19.9724 27.3217 21.0271 24.7754 22.9046 22.8979C24.782 21.0204 27.3284 19.9657 29.9835 19.9657C32.6387 19.9657 35.1851 21.0204 37.0625 22.8979C38.94 24.7754 39.9947 27.3217 39.9947 29.9769C39.9947 32.632 38.94 35.1784 37.0625 37.0558C35.1851 38.9333 32.6387 39.988 29.9835 39.988Z" fill="white"/>
<path d="M46.0034 17.5962C47.9875 17.5962 49.596 15.9878 49.596 14.0036C49.596 12.0195 47.9875 10.4111 46.0034 10.4111C44.0193 10.4111 42.4109 12.0195 42.4109 14.0036C42.4109 15.9878 44.0193 17.5962 46.0034 17.5962Z" fill="white"/>
<path d="M58.4241 10.3511C57.6526 8.3588 56.4736 6.54953 54.9626 5.03911C53.4516 3.52869 51.6419 2.3504 49.6493 1.57966C47.3176 0.704371 44.8543 0.231087 42.3642 0.179961C39.1549 0.039991 38.1384 0 30.0002 0C21.862 0 20.8188 -3.31066e-07 17.6362 0.179961C15.148 0.228473 12.6865 0.701854 10.3578 1.57966C8.36465 2.3495 6.55447 3.52747 5.04336 5.03801C3.53225 6.54854 2.35359 8.35828 1.58299 10.3511C0.70753 12.6826 0.235331 15.1462 0.186626 17.6362C0.043324 20.8422 0 21.8586 0 30.0002C0 38.1384 -3.31066e-08 39.1749 0.186626 42.3642C0.236616 44.857 0.706514 47.3165 1.58299 49.6526C2.35575 51.6447 3.53556 53.4538 5.04703 54.9641C6.55851 56.4744 8.36841 57.6528 10.3611 58.4241C12.6854 59.3345 15.148 59.8417 17.6429 59.9238C20.8522 60.0637 21.8686 60.107 30.0069 60.107C38.1451 60.107 39.1882 60.107 42.3709 59.9238C44.8607 59.8731 47.3239 59.401 49.656 58.5274C51.6481 57.7549 53.4572 56.5755 54.9681 55.0647C56.4789 53.5539 57.6582 51.7447 58.4307 49.7526C59.3072 47.4198 59.7771 44.9603 59.8271 42.4675C59.9704 39.2615 60.0137 38.2451 60.0137 30.1035C60.0137 21.9619 60.0137 20.9288 59.8271 17.7395C59.7883 15.2143 59.3137 12.7148 58.4241 10.3511ZM54.365 42.1176C54.3435 44.0382 53.9929 45.9409 53.3285 47.743C52.828 49.039 52.0619 50.2158 51.0792 51.1979C50.0966 52.1799 48.9193 52.9454 47.6231 53.4451C45.8409 54.1065 43.9584 54.4571 42.0576 54.4816C38.8916 54.6282 37.9985 54.6649 29.8802 54.6649C21.7553 54.6649 20.9255 54.6649 17.6995 54.4816C15.7997 54.4583 13.9181 54.1077 12.1374 53.4451C10.8366 52.9485 9.65459 52.1844 8.66777 51.2022C7.68094 50.2199 6.91129 49.0415 6.40862 47.743C5.75358 45.9603 5.40321 44.08 5.37217 42.1809C5.22887 39.0149 5.19555 38.1218 5.19555 30.0035C5.19555 21.882 5.19555 21.0521 5.37217 17.8228C5.39372 15.9033 5.74428 14.0017 6.40862 12.2007C7.42507 9.57127 9.50795 7.50172 12.1374 6.49527C13.919 5.83588 15.8 5.48536 17.6995 5.45882C20.8688 5.31552 21.7586 5.27553 29.8802 5.27553C38.0018 5.27553 38.835 5.27553 42.0576 5.45882C43.9586 5.48169 45.8413 5.83231 47.6231 6.49527C48.9192 6.99607 50.0963 7.76233 51.0789 8.74488C52.0614 9.72743 52.8277 10.9046 53.3285 12.2007C53.9835 13.9835 54.3339 15.8638 54.365 17.7628C54.5083 20.9322 54.5449 21.822 54.5449 29.9435C54.5449 38.0618 54.5449 38.9349 54.4016 42.1209H54.365V42.1176Z" fill="white"/>
</svg>
